<?xml version="1.0" encoding="UTF-8"?>
<svg version="1.1" xmlns="http://www.w3.org/2000/svg" width="700" height="400">
<path d="M0 0 C231 0 462 0 700 0 C700 132 700 264 700 400 C469 400 238 400 0 400 C0 268 0 136 0 0 Z " fill="#FEFEFE" transform="translate(0,0)"/>
<path d="M0 0 C1.28615287 2.57230575 0.87790519 3.80739975 0.44140625 6.63671875 C0.30250977 7.59545898 0.16361328 8.55419922 0.02050781 9.54199219 C-0.20620605 11.09901855 -0.20620605 11.09901855 -0.4375 12.6875 C-2.08690081 24.85780042 -2.38591969 36.74002156 -2 49 C-1.97099609 50.64935547 -1.97099609 50.64935547 -1.94140625 52.33203125 C-0.48173743 83.25047089 13.86067122 116.03485163 33 140 C33.45455566 140.57266602 33.90911133 141.14533203 34.37744141 141.73535156 C50.4009152 161.68911138 69.62688775 176.5285598 93 187 C93.9290918 187.42104004 93.9290918 187.42104004 94.87695312 187.85058594 C104.03513159 191.93854257 113.25935292 194.62993659 123.07177734 196.609375 C124.73609975 196.94653831 126.3941933 197.31418441 128.05078125 197.6875 C143.202498 200.63993195 167.28900882 202.73045956 180.9375 194.4375 C181.53030762 194.07889893 182.12311523 193.72029785 182.73388672 193.35083008 C192.03237535 187.637045 200.25245523 181.08261042 208.17578125 173.61328125 C210.08764205 171.84421503 212.05872615 170.13743377 214.078125 168.4921875 C236.38105945 149.46909636 251.79407426 114.60029503 256 86 C261.93493291 91.93493291 260.29356221 107.68902503 260.375 115.5625 C260.3653468 127.73605949 258.79576678 139.17369978 256 151 C255.81808105 151.79341797 255.63616211 152.58683594 255.44873047 153.40429688 C251.47694503 170.34206284 244.48263974 185.47116616 235 200 C234.50757813 200.84304688 234.01515625 201.68609375 233.5078125 202.5546875 C231.90451933 205.15484689 230.12252858 207.45000948 228.1875 209.8125 C225.18580479 213.5068941 222.29561463 217.24689322 219.51953125 221.11328125 C206.69270441 237.03964979 190.46479123 242.64223542 171.17260742 246.55834961 C169.67093618 246.86361124 168.17374198 247.19145109 166.6809082 247.53735352 C157.77692261 249.43484056 148.87654682 249.43894585 139.8125 249.4375 C138.97395477 249.43889984 138.13540955 249.44029968 137.27145386 249.44174194 C123.01694391 249.42222103 109.7376892 248.00893302 96 244 C95.27393555 243.79713379 94.54787109 243.59426758 93.79980469 243.38525391 C59.31417597 233.58950223 28.00099361 210.63561859 8 181 C7.28328125 179.96746094 6.5665625 178.93492187 5.828125 177.87109375 C-12.81129292 150.45923473 -22.18914953 118.26645052 -22.18530273 85.2878418 C-22.18748541 83.20145119 -22.20569885 81.11559431 -22.22460938 79.02929688 C-22.2601528 70.5222143 -21.54800798 62.37967588 -20 54 C-19.70029297 52.09541016 -19.70029297 52.09541016 -19.39453125 50.15234375 C-16.23406274 32.69552773 -9.8846949 14.82704235 0 0 Z " fill="#029095" transform="translate(206,109)"/>
<path d="M0 0 C3.6730634 1.27327576 7.35693128 2.27210574 11.1171875 3.25390625 C15.84569441 4.58964267 19.62207273 6.10571978 23.640625 8.91015625 C25.98588627 10.50456312 28.42377263 11.80183021 30.9296875 13.12890625 C43.80530038 20.10023256 54.77944255 28.51727421 65.4921875 38.44140625 C66.13510742 39.03574463 66.77802734 39.63008301 67.44042969 40.24243164 C70.7872217 43.3828 73.95589461 46.48931354 76.6171875 50.25390625 C76.6171875 50.91390625 76.6171875 51.57390625 76.6171875 52.25390625 C77.1946875 52.46015625 77.7721875 52.66640625 78.3671875 52.87890625 C81.46196386 54.77015847 82.8090638 57.15426562 84.6171875 60.25390625 C84.6171875 60.91390625 84.6171875 61.57390625 84.6171875 62.25390625 C85.2771875 62.25390625 85.9371875 62.25390625 86.6171875 62.25390625 C87.2771875 63.90390625 87.9371875 65.55390625 88.6171875 67.25390625 C89.2771875 67.25390625 89.9371875 67.25390625 90.6171875 67.25390625 C91.07609375 68.17171875 91.535 69.08953125 92.0078125 70.03515625 C92.30333008 70.62603027 92.59884766 71.2169043 92.90332031 71.82568359 C93.54902288 73.11741584 94.19420027 74.40941074 94.83886719 75.70166016 C96.1699831 78.36860271 97.50357799 81.03307776 98.8671875 83.68359375 C118.0088805 120.92016842 119.10044652 164.83158368 106.6171875 204.25390625 C102.65949515 215.78103119 96.46104177 226.58425749 90.40234375 237.12890625 C88.66772867 240.05646302 88.66772867 240.05646302 87.6171875 242.44140625 C86.6171875 244.25390625 86.6171875 244.25390625 84.8203125 246.04296875 C82.48166077 248.38991357 80.44023261 250.85755686 78.3671875 253.44140625 C71.02944727 262.44029615 63.78761526 270.07994317 54.6171875 277.25390625 C53.94558594 277.81464844 53.27398437 278.37539063 52.58203125 278.953125 C47.40059456 283.20746566 41.81452011 286.82470356 36.1796875 290.44140625 C35.39271484 290.95292236 34.60574219 291.46443848 33.79492188 291.99145508 C28.88251159 295.09726452 24.04492585 297.43727626 18.56616211 299.38793945 C16.43557613 300.08730566 16.43557613 300.08730566 15.6171875 302.25390625 C13.29562153 302.66119853 10.9603088 302.99829302 8.6171875 303.25390625 C9.6071875 302.59390625 10.5971875 301.93390625 11.6171875 301.25390625 C13.46423727 299.81298489 15.29605968 298.35245322 17.1171875 296.87890625 C18.55578125 295.72261719 18.55578125 295.72261719 20.0234375 294.54296875 C22.27573304 292.55525009 23.83433081 290.6346722 25.6171875 288.25390625 C26.2771875 288.25390625 26.9371875 288.25390625 27.6171875 288.25390625 C27.88885742 287.66617432 28.16052734 287.07844238 28.44042969 286.47290039 C29.5977952 284.29047401 30.84273481 282.62201692 32.4453125 280.75 C32.99493652 280.09757324 33.54456055 279.44514648 34.11083984 278.77294922 C34.69043457 278.08604004 35.2700293 277.39913086 35.8671875 276.69140625 C40.96777334 270.52037857 45.14952023 264.49702191 48.6171875 257.25390625 C49.45636719 255.64128906 49.45636719 255.64128906 50.3125 253.99609375 C58.32138217 238.4983867 63.29355488 223.37000884 66.6171875 206.25390625 C66.80700195 205.29830811 66.99681641 204.34270996 67.19238281 203.3581543 C68.54866658 196.00880667 68.92958897 188.90618179 68.8671875 181.44140625 C68.86332031 180.31299316 68.85945312 179.18458008 68.85546875 178.02197266 C68.76877292 169.62572254 68.14362135 161.51300368 66.6171875 153.25390625 C65.6271875 157.21390625 65.6271875 157.21390625 64.6171875 161.25390625 C64.2871875 161.25390625 63.9571875 161.25390625 63.6171875 161.25390625 C63.68679688 159.95839844 63.75640625 158.66289062 63.828125 157.328125 C64.52413049 138.59989559 59.43673199 124.08517591 51.15625 107.5 C49.6171875 104.25390625 49.6171875 104.25390625 49.6171875 102.25390625 C48.9571875 102.25390625 48.2971875 102.25390625 47.6171875 102.25390625 C47.25367188 101.54105469 46.89015625 100.82820313 46.515625 100.09375 C43.38286741 94.12544516 40.09769889 89.26781185 35.6171875 84.25390625 C35.6171875 83.59390625 35.6171875 82.93390625 35.6171875 82.25390625 C34.9571875 82.25390625 34.2971875 82.25390625 33.6171875 82.25390625 C32.5942398 80.60122486 31.59899485 78.93135435 30.6171875 77.25390625 C29.2000919 75.53163089 27.7394182 73.84449203 26.2421875 72.19140625 C25.49195313 71.35480469 24.74171875 70.51820312 23.96875 69.65625 C21.64538398 67.17741436 21.64538398 67.17741436 18.828125 65.0703125 C17.73371094 64.17119141 17.73371094 64.17119141 16.6171875 63.25390625 C16.6171875 62.59390625 16.6171875 61.93390625 16.6171875 61.25390625 C15.8953125 61.02703125 15.1734375 60.80015625 14.4296875 60.56640625 C11.67581919 59.28126771 10.30827222 57.95379934 8.28515625 55.75390625 C5.16187675 52.94514904 1.44499051 50.94788136 -2.15234375 48.8046875 C-2.88839844 48.29292969 -3.62445313 47.78117187 -4.3828125 47.25390625 C-4.3828125 46.59390625 -4.3828125 45.93390625 -4.3828125 45.25390625 C-5.589375 44.91359375 -5.589375 44.91359375 -6.8203125 44.56640625 C-9.67175987 43.51587301 -11.96001303 42.43434731 -14.5703125 40.94140625 C-27.34065218 33.66851598 -41.1695628 28.84105974 -55.3828125 25.25390625 C-56.09566406 25.06763672 -56.80851562 24.88136719 -57.54296875 24.68945312 C-85.40149367 17.64119854 -115.92005304 19.80704298 -143.1953125 28.31640625 C-144.29488281 28.65800781 -145.39445313 28.99960938 -146.52734375 29.3515625 C-148.48420863 29.96994251 -150.43588091 30.60492905 -152.3828125 31.25390625 C-151.08991914 27.37522616 -148.77010444 26.16353613 -145.5078125 24.00390625 C-144.91774414 23.60695557 -144.32767578 23.21000488 -143.71972656 22.80102539 C-142.51205751 21.99184811 -141.30176397 21.18657395 -140.08886719 20.38525391 C-138.60639348 19.40217103 -137.1378158 18.39819526 -135.671875 17.390625 C-130.21398337 13.73803598 -124.54200128 10.72084161 -118.6328125 7.87890625 C-117.92350586 7.5327124 -117.21419922 7.18651855 -116.48339844 6.82983398 C-112.06787799 4.76632788 -108.24054416 3.69898638 -103.3828125 3.25390625 C-103.3828125 2.59390625 -103.3828125 1.93390625 -103.3828125 1.25390625 C-70.04221674 -8.16698354 -33.34844712 -11.61302473 0 0 Z " fill="#9FDAE6" transform="translate(396.3828125,43.74609375)"/>
<path d="M0 0 C1.28615287 2.57230575 0.87790519 3.80739975 0.44140625 6.63671875 C0.30250977 7.59545898 0.16361328 8.55419922 0.02050781 9.54199219 C-0.20620605 11.09901855 -0.20620605 11.09901855 -0.4375 12.6875 C-2.08690081 24.85780042 -2.38591969 36.74002156 -2 49 C-1.97099609 50.64935547 -1.97099609 50.64935547 -1.94140625 52.33203125 C-0.48173743 83.25047089 13.86067122 116.03485163 33 140 C33.45455566 140.57266602 33.90911133 141.14533203 34.37744141 141.73535156 C50.4009152 161.68911138 69.62688775 176.5285598 93 187 C93.9290918 187.42104004 93.9290918 187.42104004 94.87695312 187.85058594 C104.61687942 192.19821865 114.5311858 195.04339455 125 197 C125.93255615 197.17515137 126.8651123 197.35030273 127.82592773 197.53076172 C136.82943144 199.07453883 145.70493551 199.42734516 154.8125 199.625 C156.29494159 199.66330682 157.77736397 199.70236519 159.25976562 199.7421875 C162.83966478 199.83675637 166.41971326 199.92127018 170 200 C145.69614134 218.7162846 102.76990222 218.13648881 74.03125 214.75 C61.1033398 212.97166305 49.11149484 209.06396838 37.3203125 203.55078125 C34.10729724 201.9968685 34.10729724 201.9968685 31.1171875 200.921875 C29 200 29 200 28 197.9375 C27.505 196.9784375 27.505 196.9784375 27 196 C24.64632287 195.3121764 24.64632287 195.3121764 22 195 C15.04310703 192.98646025 11.90336489 186.66116099 8 181 C6.87851563 179.39705078 6.87851563 179.39705078 5.734375 177.76171875 C-12.88179523 150.4347085 -22.18913765 118.16460233 -22.18530273 85.2878418 C-22.18748541 83.20145119 -22.20569885 81.11559431 -22.22460938 79.02929688 C-22.2601528 70.5222143 -21.54800798 62.37967588 -20 54 C-19.70029297 52.09541016 -19.70029297 52.09541016 -19.39453125 50.15234375 C-16.23406274 32.69552773 -9.8846949 14.82704235 0 0 Z " fill="#024A61" transform="translate(206,109)"/>
<path d="M0 0 C11.22 0 22.44 0 34 0 C34 8.58 34 17.16 34 26 C42.58 26 51.16 26 60 26 C60 36.89 60 47.78 60 59 C51.42 59 42.84 59 34 59 C34 67.58 34 76.16 34 85 C23.11 85 12.22 85 1 85 C1 76.75 1 68.5 1 60 C-7.91 60 -16.82 60 -26 60 C-26 48.78 -26 37.56 -26 26 C-17.42 26 -8.84 26 0 26 C0 17.42 0 8.84 0 0 Z " fill="#044255" transform="translate(317,102)"/>
<path d="M0 0 C3.11922508 2.25771485 3.91511167 3.47291534 4.53344727 7.31225586 C4.54432373 8.60010986 4.5552002 9.88796387 4.56640625 11.21484375 C4.57570412 12.25397667 4.57570412 12.25397667 4.58518982 13.31410217 C4.59227657 14.77571206 4.58913373 16.23740287 4.57641602 17.69897461 C4.56256035 19.9277918 4.59661125 22.15239748 4.63476562 24.38085938 C4.63571705 25.80468852 4.63385671 27.22852289 4.62890625 28.65234375 C4.62963135 29.94132568 4.63035645 31.23030762 4.63110352 32.55834961 C3.84564032 36.84178273 2.1741365 38.13887162 -1 41 C-1.85505954 44.54238954 -2.07587344 45.67098846 -1 49 C3.03419139 55.16211653 8.20102623 60.30495359 13.5078125 65.3671875 C15.09299363 67.10175742 16.10223208 68.79700639 17.1875 70.875 C18.64804043 74.11984286 18.64804043 74.11984286 21.25 74.9375 C21.8275 74.958125 22.405 74.97875 23 75 C19.99437141 65.98311424 13.33819142 59.07358733 6.4375 52.75 C3.51654954 49.92776954 3.05414074 49.33567262 2.375 45.125 C3 42 3 42 5 40 C8.49195931 39.357879 10.89014318 39.25922976 13.91711426 41.27957153 C16.04760729 43.16916276 18.03564388 45.14455086 20.015625 47.19140625 C20.75327087 47.92947006 21.49091675 48.66753387 22.25091553 49.42796326 C23.80554376 50.99096288 25.35163037 52.56249863 26.88964844 54.1418457 C29.23664618 56.54880502 31.6114769 58.92525867 33.9921875 61.29882812 C35.50174267 62.82379775 37.0096126 64.3504378 38.515625 65.87890625 C39.22189026 66.58648575 39.92815552 67.29406525 40.65582275 68.02308655 C45.20264287 72.72397068 48.41294854 76.78206679 49.34057617 83.44702148 C49.3170105 84.52318726 49.3170105 84.52318726 49.29296875 85.62109375 C49.28172974 86.69121704 49.28172974 86.69121704 49.27026367 87.78295898 C49.24295166 88.65895752 49.21563965 89.53495605 49.1875 90.4375 C49.0946875 94.6759375 49.0946875 94.6759375 49 99 C40.09 99 31.18 99 22 99 C21.505 94.545 21.505 94.545 21 90 C19.65738398 87.50369514 19.65738398 87.50369514 17.68359375 85.68359375 C17.00103516 84.98169922 16.31847656 84.27980469 15.61523438 83.55664062 C14.89658203 82.85732422 14.17792969 82.15800781 13.4375 81.4375 C12.74591797 80.73431641 12.05433594 80.03113281 11.34179688 79.30664062 C9.24684085 77.1843506 7.12782053 75.08930133 5 73 C3.5589402 71.58171741 2.12006696 70.16120906 0.68359375 68.73828125 C0.05638428 68.12122314 -0.5708252 67.50416504 -1.21704102 66.8684082 C-6.35502531 61.48418339 -11.22158062 55.7943792 -11.29052734 48.11132812 C-11.30328705 47.14352417 -11.31604675 46.17572021 -11.32919312 45.17858887 C-11.33141876 44.13996704 -11.33364441 43.10134521 -11.3359375 42.03125 C-11.3425943 40.95879028 -11.3492511 39.88633057 -11.35610962 38.78137207 C-11.36622888 36.51523554 -11.37092686 34.24906926 -11.37060547 31.98291016 C-11.37498379 28.5128493 -11.41132662 25.04405503 -11.44921875 21.57421875 C-11.45508594 19.37240019 -11.45905599 17.17057558 -11.4609375 14.96875 C-11.47530853 13.93012817 -11.48967957 12.89150635 -11.50448608 11.82141113 C-11.45903766 4.67313966 -11.45903766 4.67313966 -9.18994141 1.34570312 C-5.94867456 -0.64603187 -3.72215092 -0.53173585 0 0 Z " fill="#034053" transform="translate(274,171)"/>
<path d="M0 0 C4.24936998 0.78049653 5.45651495 2.12241564 8.0625 5.5625 C8.80062723 8.96250275 8.76355591 12.29300715 8.7265625 15.76171875 C8.73134613 16.75194534 8.73612976 17.74217194 8.74105835 18.7624054 C8.74445623 20.85618682 8.73526171 22.95002137 8.71435547 25.04370117 C8.68773099 28.22242166 8.71403394 31.3975651 8.74609375 34.57617188 C8.74278686 36.6171952 8.73637486 38.65821633 8.7265625 40.69921875 C8.73668365 41.63811447 8.74680481 42.57701019 8.75723267 43.5443573 C8.61374161 51.77519681 5.93608694 58.15300296 0.6328125 64.4453125 C-0.17414063 65.18523437 -0.98109375 65.92515625 -1.8125 66.6875 C-4.90202907 69.61225419 -7.86241435 72.51347189 -10.625 75.75 C-12.88062464 78.38956075 -15.21160861 80.87795962 -17.6875 83.3125 C-18.26242187 83.88742188 -18.83734375 84.46234375 -19.4296875 85.0546875 C-20.55729167 86.18229167 -21.68489583 87.30989583 -22.8125 88.4375 C-24.59939657 91.49805384 -24.59939657 91.49805384 -24.9375 99.5625 C-33.8475 99.5625 -42.7575 99.5625 -51.9375 99.5625 C-52.78656062 78.1944745 -52.78656062 78.1944745 -47.71875 72.2421875 C-44.87142278 69.55720788 -41.99346228 67.00726983 -38.9375 64.5625 C-36.29103718 62.04205922 -33.91634229 59.53619582 -31.625 56.6875 C-29.03485417 53.51090606 -26.04640898 50.94399649 -22.91796875 48.30859375 C-21.06536498 46.67523303 -19.45887214 44.96150436 -17.8125 43.125 C-14.9375 40.5625 -14.9375 40.5625 -11.75 40 C-8.9375 40.5625 -8.9375 40.5625 -7.0625 41.75 C-5.51762662 44.23896266 -5.59490171 45.66098853 -5.9375 48.5625 C-7.58984375 50.88671875 -7.58984375 50.88671875 -9.875 53.25 C-10.6896875 54.11625 -11.504375 54.9825 -12.34375 55.875 C-13.1996875 56.761875 -14.055625 57.64875 -14.9375 58.5625 C-22.43266816 65.96277706 -22.43266816 65.96277706 -25.9375 75.5625 C-24.6175 75.5625 -23.2975 75.5625 -21.9375 75.5625 C-21.751875 74.7375 -21.56625 73.9125 -21.375 73.0625 C-19.0255287 67.34204813 -14.7569712 63.33759385 -10.375 59.0625 C-4.33833333 53.04899514 -4.33833333 53.04899514 -1.5 45.3125 C-1.644375 44.405 -1.78875 43.4975 -1.9375 42.5625 C-2.02 41.82 -2.1025 41.0775 -2.1875 40.3125 C-3.21316744 37.91927598 -4.63182241 37.61388898 -6.9375 36.5625 C-7.03653473 32.07851216 -7.10904483 27.59510708 -7.15722656 23.11035156 C-7.17731599 21.58549915 -7.20459316 20.06072352 -7.23925781 18.53613281 C-7.28789796 16.34160402 -7.31049396 14.14809531 -7.328125 11.953125 C-7.34907227 10.63344727 -7.37001953 9.31376953 -7.39160156 7.95410156 C-6.9375 4.5625 -6.9375 4.5625 -5.09667969 2.13574219 C-2.9375 0.5625 -2.9375 0.5625 0 0 Z " fill="#064153" transform="translate(397.9375,170.4375)"/>
<path d="M0 0 C0.33 0 0.66 0 1 0 C1.02505615 1.1238208 1.0501123 2.2476416 1.07592773 3.40551758 C1.17096019 7.62322048 1.27093636 11.84079486 1.37231445 16.05834961 C1.41530463 17.87472502 1.45700038 19.69113159 1.49731445 21.50756836 C1.79917193 35.77982661 1.79917193 35.77982661 3 50 C4.32 50 5.64 50 7 50 C7.33 46.04 7.66 42.08 8 38 C8.33 38 8.66 38 9 38 C9.05881348 38.5554248 9.11762695 39.11084961 9.17822266 39.68310547 C10.27961396 46.7311156 13.33814963 50.26939993 18.375 55.125 C23.16474647 59.85051616 26.78951193 64.08395978 30 70 C32.11341126 71.03525132 32.11341126 71.03525132 34 71 C34 71.66 34 72.32 34 73 C30.535 73.99 30.535 73.99 27 75 C27 75.66 27 76.32 27 77 C27.66 77 28.32 77 29 77 C29.99 78.98 30.98 80.96 32 83 C29 83 29 83 26.3984375 80.47265625 C25.38293386 79.3428032 24.37557883 78.20559123 23.375 77.0625 C22.29853206 75.86049311 21.22039512 74.6599789 20.140625 73.4609375 C19.60888672 72.86893555 19.07714844 72.27693359 18.52929688 71.66699219 C16.47251877 69.42502525 14.30916582 67.3048036 12.125 65.1875 C0.48204126 53.69245544 0.48204126 53.69245544 -0.24050903 46.65875244 C-0.23606781 45.79715515 -0.23162659 44.93555786 -0.22705078 44.04785156 C-0.22689972 43.06713684 -0.22674866 42.08642212 -0.22659302 41.07598877 C-0.21627045 40.02481873 -0.20594788 38.97364868 -0.1953125 37.890625 C-0.1924826 36.80867859 -0.18965271 35.72673218 -0.18673706 34.61199951 C-0.17554609 31.15788696 -0.1504432 27.70403412 -0.125 24.25 C-0.11496881 21.90755583 -0.1058432 19.56510759 -0.09765625 17.22265625 C-0.0756103 11.48168229 -0.04214334 5.7408597 0 0 Z " fill="#0F4254" transform="translate(263,175)"/>
<path d="M0 0 C2.36810318 0.94724127 3.75207953 1.65291134 5.25 3.75 C6.290264 6.870792 6.50696081 8.70475474 6 12 C4.25403948 14.88536982 2.1662808 17.42185841 0 20 C-0.680625 20.886875 -1.36125 21.77375 -2.0625 22.6875 C-4.23600656 25.28168525 -6.60757745 27.60757745 -9 30 C-11.45148884 32.87174407 -13.46425212 35.54456727 -15 39 C-16.32 39 -17.64 39 -19 39 C-18.83044667 32.09293286 -15.9747641 29.10933957 -11.1875 24.375 C-9.92953503 23.09257102 -8.6729898 21.80874762 -7.41796875 20.5234375 C-6.82628906 19.92023682 -6.23460937 19.31703613 -5.625 18.69555664 C-1.4969587 14.58944937 -1.4969587 14.58944937 0.375 9.3125 C0.20063253 6.81076481 0.20063253 6.81076481 -2 5 C-4.57061311 4.35232207 -4.57061311 4.35232207 -7 4 C-7 3.67 -7 3.34 -7 3 C-4.69 3 -2.38 3 0 3 C0 2.01 0 1.02 0 0 Z " fill="#E2F0F3" transform="translate(391,207)"/>
<path d="M0 0 C1.5 1.5 1.5 1.5 3 4 C2.855625 5.19625 2.71125 6.3925 2.5625 7.625 C2.42544896 10.84272009 2.86710155 11.83568919 4.93359375 14.390625 C6.68468173 16.08574213 8.45662972 17.75950828 10.24609375 19.4140625 C12.89586345 21.90221504 15.24677948 24.45096213 17.5625 27.25 C18.52349609 28.40242188 18.52349609 28.40242188 19.50390625 29.578125 C21.2470299 32.39989175 21.65462312 34.72601639 22 38 C19.75 37.9375 19.75 37.9375 17 37 C16.05706855 35.38354608 15.12751254 33.75700867 14.28515625 32.0859375 C12.71502178 29.53745176 10.84092802 27.70191027 8.6875 25.625 C-3.3614463 13.8752825 -3.3614463 13.8752825 -3.625 7.6875 C-3.02197773 4.1296686 -2.51622694 2.51622694 0 0 Z " fill="#EAF5F8" transform="translate(275,208)"/>
<path d="M0 0 C1.36363845 2.72727691 0.83805813 4.4307582 0.44140625 7.4453125 C0.30283203 8.52167969 0.16425781 9.59804687 0.02148438 10.70703125 C-0.12998047 11.83496094 -0.28144531 12.96289062 -0.4375 14.125 C-0.58509766 15.26066406 -0.73269531 16.39632812 -0.88476562 17.56640625 C-1.25102973 20.37836939 -1.62300697 23.18945849 -2 26 C-2.804375 26.28875 -3.60875 26.5775 -4.4375 26.875 C-7.1326468 27.73262568 -7.1326468 27.73262568 -8 30 C-8.66 30 -9.32 30 -10 30 C-10.33 30.99 -10.66 31.98 -11 33 C-11.66 33 -12.32 33 -13 33 C-13.103125 34.27875 -13.20625 35.5575 -13.3125 36.875 C-13.48828125 39.0546875 -13.48828125 39.0546875 -14 41 C-14.99 41.66 -15.98 42.32 -17 43 C-16.40410069 37.73279808 -15.22081555 33.04762459 -13.4375 28.0625 C-13.17936523 27.33466309 -12.92123047 26.60682617 -12.65527344 25.85693359 C-9.37431267 16.90658058 -5.29580917 7.94371376 0 0 Z " fill="#0D4F61" transform="translate(206,109)"/>
<path d="M0 0 C0.268125 0.639375 0.53625 1.27875 0.8125 1.9375 C1.88667752 4.33131686 1.88667752 4.33131686 5 5 C5.54772931 7.86036419 5.76496765 9.24011671 5 12 C2.29309581 15.33482154 -0.77167881 18.17521896 -4 21 C-4.99 19.68 -5.98 18.36 -7 17 C-6.34 15.68 -5.68 14.36 -5 13 C-5.66 13.66 -6.32 14.32 -7 15 C-10.625 15.125 -10.625 15.125 -14 15 C-13.67 13.68 -13.34 12.36 -13 11 C-13 11.99 -13 12.98 -13 14 C-11.68 14 -10.36 14 -9 14 C-8.7215625 12.7625 -8.7215625 12.7625 -8.4375 11.5 C-6.51131879 6.81016748 -3.45957895 3.64458317 0 0 Z " fill="#0D4659" transform="translate(385,232)"/>
<path d="M0 0 C0.33 0 0.66 0 1 0 C6.73281587 23.20425473 5.50430275 49.27420374 -2 72 C-2.66 72 -3.32 72 -4 72 C-4.042721 70.33388095 -4.04063832 68.66617115 -4 67 C-3.505 66.505 -3.505 66.505 -3 66 C0.15331257 52.8040724 0.70993504 39.51545905 1 26 C1.02964844 24.70578125 1.05929687 23.4115625 1.08984375 22.078125 C1.14414832 17.22691678 0.86931654 12.78124095 0 8 C-0.08323433 5.32670913 -0.04613086 2.67559003 0 0 Z " fill="#ADDAE0" transform="translate(507,168)"/>
<path d="M0 0 C2.4375 0.8125 2.4375 0.8125 5 2 C5.33 2.99 5.66 3.98 6 5 C7.32 4.34 8.64 3.68 10 3 C10.33 7.95 10.66 12.9 11 18 C9.68 18.33 8.36 18.66 7 19 C6.67 20.65 6.34 22.3 6 24 C5.34 23.34 4.68 22.68 4 22 C4.33 21.34 4.66 20.68 5 20 C4.34 20 3.68 20 3 20 C2.773125 20.639375 2.54625 21.27875 2.3125 21.9375 C1 24 1 24 -1.625 24.75 C-2.40875 24.8325 -3.1925 24.915 -4 25 C-2.62429326 21.99481537 -0.98292789 19.6606234 1.125 17.125 C3.22832578 14.37174144 3.96442188 13.26429461 4.4375 9.75 C4.293125 8.8425 4.14875 7.935 4 7 C3.896875 6.236875 3.79375 5.47375 3.6875 4.6875 C3.3471875 3.8521875 3.3471875 3.8521875 3 3 C2.01 2.67 1.02 2.34 0 2 C0 1.34 0 0.68 0 0 Z " fill="#0A4358" transform="translate(392,206)"/>
<path d="M0 0 C4.38968456 4.38968456 3.64100638 7.8971084 4 14 C11.26 14.33 18.52 14.66 26 15 C26 15.99 26 16.98 26 18 C17.42 18 8.84 18 0 18 C0 12.06 0 6.12 0 0 Z " fill="#083F48" transform="translate(346,252)"/>
<path d="M0 0 C0.8125 1.6875 0.8125 1.6875 1 4 C-1 6.25 -1 6.25 -2.40234375 7.51171875 C-4.27029298 9.25178882 -5.89930562 11.12629747 -7.5625 13.0625 C-14.03125 20.515625 -14.03125 20.515625 -17 22 C-16.34 22.66 -15.68 23.32 -15 24 C-15.99 24 -16.98 24 -18 24 C-18.66 25.98 -19.32 27.96 -20 30 C-20.99 30 -21.98 30 -23 30 C-23.66 30.350625 -24.32 30.70125 -25 31.0625 C-27 32 -27 32 -30 31 C-28.1265988 29.26907429 -26.25133718 27.54023837 -24.375 25.8125 C-23.85292969 25.32974609 -23.33085937 24.84699219 -22.79296875 24.34960938 C-20.21187783 21.97564303 -17.62214987 19.69391763 -14.89453125 17.484375 C-11.99035147 14.99171867 -9.69452144 12.42645884 -7.3125 9.4375 C-6.56613281 8.50808594 -5.81976563 7.57867187 -5.05078125 6.62109375 C-3.33901158 4.43328909 -1.65401949 2.23161359 0 0 Z " fill="#259294" transform="translate(435,260)"/>
<path d="M0 0 C2.36810318 0.94724127 3.75207953 1.65291134 5.25 3.75 C6.26901064 6.80703191 6.44189783 8.78045864 6 12 C4.54642541 14.51716576 2.85237598 16.76391757 1 19 C0.01 17.68 -0.98 16.36 -2 15 C-1.34 14.01 -0.68 13.02 0 12 C0.33343551 9.45792029 0.33343551 9.45792029 0 7 C-2.35953094 4.64046906 -3.77895617 4.50858587 -7 4 C-7 3.67 -7 3.34 -7 3 C-4.69 3 -2.38 3 0 3 C0 2.01 0 1.02 0 0 Z " fill="#E6F1F1" transform="translate(391,207)"/>
<path d="M0 0 C3.3 0.33 6.6 0.66 10 1 C10 2.65 10 4.3 10 6 C11.782009 9.69598454 11.782009 9.69598454 15 12 C15 12.66 15 13.32 15 14 C16.65 13.67 18.3 13.34 20 13 C20 14.65 20 16.3 20 18 C15.80480635 18 14.02313947 15.66946175 11.125 12.9375 C10.5877832 12.43887451 10.05056641 11.94024902 9.49707031 11.42651367 C5.78087817 7.91065993 2.71207128 4.35868599 0 0 Z " fill="#2D9B98" transform="translate(225,303)"/>
<path d="M0 0 C1.97558594 1.04418945 1.97558594 1.04418945 4 3 C4.35711867 5.57797437 4.46813593 7.72314113 4.390625 10.29296875 C4.38496521 10.99899734 4.37930542 11.70502594 4.37347412 12.43244934 C4.35110411 14.68482626 4.30091199 16.93560503 4.25 19.1875 C4.22993556 20.71547179 4.21168468 22.24346856 4.1953125 23.77148438 C4.15123802 27.51493756 4.08221074 31.25719795 4 35 C3.01 35 2.02 35 1 35 C0.505 33.515 0.505 33.515 0 32 C0.33 31.67 0.66 31.34 1 31 C1.08767112 28.92737924 1.10695873 26.85179706 1.09765625 24.77734375 C1.09443359 23.51728516 1.09121094 22.25722656 1.08789062 20.95898438 C1.07953403 19.61848891 1.07106907 18.27799412 1.0625 16.9375 C1.0574866 15.59310058 1.05292342 14.2486994 1.04882812 12.90429688 C1.03699488 9.60282059 1.02050971 6.30143197 1 3 C0.34 3 -0.32 3 -1 3 C-0.67 2.01 -0.34 1.02 0 0 Z " fill="#1E4C55" transform="translate(274,172)"/>
<path d="M0 0 C1.1446875 0.3403125 1.1446875 0.3403125 2.3125 0.6875 C-1.4375 3.6875 -1.4375 3.6875 -3.6875 3.6875 C-3.6875 13.5875 -3.6875 23.4875 -3.6875 33.6875 C-4.6775 34.1825 -4.6775 34.1825 -5.6875 34.6875 C-5.76167023 30.18517666 -5.8161105 25.68320909 -5.85229492 21.18041992 C-5.86737936 19.64878139 -5.88784978 18.11718602 -5.91381836 16.58569336 C-5.95021847 14.38384346 -5.96722913 12.18256467 -5.98046875 9.98046875 C-5.99595261 9.29599167 -6.01143646 8.61151459 -6.02738953 7.90629578 C-6.02840809 5.02744649 -5.98722812 3.12595601 -4.3371582 0.7121582 C-2.6875 -0.3125 -2.6875 -0.3125 0 0 Z " fill="#103A4A" transform="translate(396.6875,172.3125)"/>
<path d="M0 0 C5.94858375 -0.15618428 11.39558573 0.45080097 17.25 1.4375 C30.4283695 3.51358592 43.68300313 3.73694462 57 4 C57 4.33 57 4.66 57 5 C15.55380783 5.82555811 15.55380783 5.82555811 0 1 C0 0.67 0 0.34 0 0 Z " fill="#329A9A" transform="translate(307,353)"/>
<path d="M0 0 C0.33 0 0.66 0 1 0 C1 10.23 1 20.46 1 31 C-7.58 31 -16.16 31 -25 31 C-25 35.29 -25 39.58 -25 44 C-25.33 44 -25.66 44 -26 44 C-26.36205464 42.04310963 -26.71441421 40.08442332 -27.0625 38.125 C-27.25972656 37.03445312 -27.45695312 35.94390625 -27.66015625 34.8203125 C-28 32 -28 32 -27 30 C-18.09 30 -9.18 30 0 30 C0 20.1 0 10.2 0 0 Z " fill="#0E3843" transform="translate(376,130)"/>
<path d="M0 0 C5.62754214 2.81377107 9.89351365 6.41807362 14.5 10.6875 C17.36795412 13.34035756 20.32572622 15.8724825 23.30859375 18.39453125 C25.12709365 20.12063623 26.55159688 21.95806166 28 24 C25.625 23.75 25.625 23.75 23 23 C21.9375 21.0625 21.9375 21.0625 21 19 C18.9664052 17.73195434 18.9664052 17.73195434 17 17 C17 16.34 17 15.68 17 15 C16.34 15 15.68 15 15 15 C15 14.34 15 13.68 15 13 C14.4225 12.71125 13.845 12.4225 13.25 12.125 C12.5075 11.75375 11.765 11.3825 11 11 C10.278125 10.690625 9.55625 10.38125 8.8125 10.0625 C7 9 7 9 6 6 C2.99152582 4.77479736 2.99152582 4.77479736 0 4 C0 2.68 0 1.36 0 0 Z " fill="#AFD8E0" transform="translate(441,66)"/>
<path d="M0 0 C1.32 0.33 2.64 0.66 4 1 C-0.5043542 4.92360413 -5.18678228 8.21280725 -10.25 11.375 C-11.32894531 12.06916016 -11.32894531 12.06916016 -12.4296875 12.77734375 C-14.24683211 13.91731275 -16.11987714 14.96719708 -18 16 C-18.66 15.67 -19.32 15.34 -20 15 C-20 13.68 -20 12.36 -20 11 C-18.03533587 9.93224776 -16.03144641 8.93446535 -14 8 C-13.34 8.33 -12.68 8.66 -12 9 C-10.948125 8.1028125 -10.948125 8.1028125 -9.875 7.1875 C-7.03159677 5.02404102 -4.18376033 3.59188017 -1 2 C-0.67 1.34 -0.34 0.68 0 0 Z " fill="#ACD8E0" transform="translate(444,322)"/>
<path d="M0 0 C5.08938811 1.59043379 8.87456643 4.7446951 13 8 C8.99056996 10.32264339 6.53337828 9.75556305 2 9 C1.01 9.495 1.01 9.495 0 10 C0.185625 9.0925 0.37125 8.185 0.5625 7.25 C0.95734621 4.31685676 0.94691572 2.7355343 0 0 Z " fill="#0F4E5F" transform="translate(265,277)"/>
<path d="M0 0 C11.33624454 8.24454148 11.33624454 8.24454148 12.4453125 14.51953125 C12.43836954 16.7239216 12.31789747 18.82013161 12 21 C11.34 20.67 10.68 20.34 10 20 C9.71125 18.906875 9.4225 17.81375 9.125 16.6875 C7.94543656 12.82115318 6.80816785 11.71456226 4 9 C4 7.68 4 6.36 4 5 C2.68 5 1.36 5 0 5 C-0.33 4.01 -0.66 3.02 -1 2 C-0.67 1.34 -0.34 0.68 0 0 Z " fill="#DCEEF1" transform="translate(284,249)"/>
<path d="M0 0 C0.99 0.33 1.98 0.66 3 1 C1.02209776 4.56022403 -1.13547577 7.13547577 -4 10 C-4.268125 10.70125 -4.53625 11.4025 -4.8125 12.125 C-6 14 -6 14 -9.625 15.25 C-10.73875 15.4975 -11.8525 15.745 -13 16 C-12.67 15.34 -12.34 14.68 -12 14 C-11.34 14 -10.68 14 -10 14 C-9.75507813 13.44828125 -9.51015625 12.8965625 -9.2578125 12.328125 C-7.74261886 9.52360509 -5.88915874 7.21896877 -3.875 4.75 C-3.15054687 3.85796875 -2.42609375 2.9659375 -1.6796875 2.046875 C-0.84824219 1.03367187 -0.84824219 1.03367187 0 0 Z " fill="#85D3E0" transform="translate(434,318)"/>
<path d="M0 0 C1.86328125 0.6171875 1.86328125 0.6171875 4 2 C6.94489027 8.60029375 8.43658321 15.81643597 9 23 C9.66 23 10.32 23 11 23 C11 24.65 11 26.3 11 28 C10.34 28 9.68 28 9 28 C8.68546875 26.94941406 8.3709375 25.89882812 8.046875 24.81640625 C4.93524869 14.54708306 4.93524869 14.54708306 0.69921875 4.69921875 C0 3 0 3 0 0 Z " fill="#A8D7DE" transform="translate(450,153)"/>
<path d="M0 0 C0.99 0.33 1.98 0.66 3 1 C3 1.66 3 2.32 3 3 C1.35 3.33 -0.3 3.66 -2 4 C-1.67 4.99 -1.34 5.98 -1 7 C-1.66 7.66 -2.32 8.32 -3 9 C-3.99 8.67 -4.98 8.34 -6 8 C-6.33 10.31 -6.66 12.62 -7 15 C-8.65 15 -10.3 15 -12 15 C-11.58685438 10.55073948 -8.49538473 8.15899896 -5.4375 5.25 C-4.91736328 4.74339844 -4.39722656 4.23679688 -3.86132812 3.71484375 C-2.58089916 2.46965595 -1.29132446 1.23388498 0 0 Z " fill="#0F3A49" transform="translate(382,212)"/>
<path d="M0 0 C2 1.375 2 1.375 4 3 C4 3.66 4 4.32 4 5 C4.99 5.33 5.98 5.66 7 6 C9.1875 7.9375 9.1875 7.9375 11 10 C11 10.66 11 11.32 11 12 C12.32 12.66 13.64 13.32 15 14 C14.01 14.66 13.02 15.32 12 16 C7.38 11.38 2.76 6.76 -2 2 C-1.34 1.34 -0.68 0.68 0 0 Z " fill="#E4F2F6" transform="translate(305,227)"/>
<path d="M0 0 C0.99 0.33 1.98 0.66 3 1 C2.5248459 5.27638694 0.12116265 7.23351492 -3 10 C-5.6875 11.875 -5.6875 11.875 -8 13 C-8.66 12.67 -9.32 12.34 -10 12 C-9.27683594 11.31164062 -9.27683594 11.31164062 -8.5390625 10.609375 C-7.59160156 9.68898437 -7.59160156 9.68898437 -6.625 8.75 C-5.99851562 8.14671875 -5.37203125 7.5434375 -4.7265625 6.921875 C-3.02175722 5.02421844 -2.05397501 3.30495468 -1 1 C-0.67 0.67 -0.34 0.34 0 0 Z " fill="#EDF7FA" transform="translate(388,223)"/>
<path d="M0 0 C0.66 0.33 1.32 0.66 2 1 C1.67 1.99 1.34 2.98 1 4 C0.34 4 -0.32 4 -1 4 C-1 16.54 -1 29.08 -1 42 C-1.33 42 -1.66 42 -2 42 C-2.04934926 36.34001954 -2.08569529 30.68016364 -2.10986328 25.02001953 C-2.11993582 23.09356506 -2.13359443 21.16712592 -2.15087891 19.24072266 C-2.17507241 16.47554748 -2.18647036 13.710574 -2.1953125 10.9453125 C-2.20563507 10.0806839 -2.21595764 9.2160553 -2.22659302 8.32522583 C-2.22699106 6.21546479 -2.12265243 4.10619282 -2 2 C-1.34 1.34 -0.68 0.68 0 0 Z " fill="#103E4C" transform="translate(266,172)"/>
<path d="M0 0 C0.8632601 3.71888866 1.11721556 7.14296488 1.09765625 10.95703125 C1.09443359 12.06884766 1.09121094 13.18066406 1.08789062 14.32617188 C1.07951172 15.47666016 1.07113281 16.62714844 1.0625 17.8125 C1.05798828 18.98232422 1.05347656 20.15214844 1.04882812 21.35742188 C1.0370693 24.23833358 1.02063426 27.11914044 1 30 C0.67 30 0.34 30 0 30 C-0.01401855 28.94087402 -0.01401855 28.94087402 -0.02832031 27.86035156 C-0.08205659 24.65619455 -0.16569757 21.45349243 -0.25 18.25 C-0.26417969 17.13882813 -0.27835937 16.02765625 -0.29296875 14.8828125 C-0.32519531 13.81289062 -0.35742188 12.74296875 -0.390625 11.640625 C-0.41157227 10.65610352 -0.43251953 9.67158203 -0.45410156 8.65722656 C-1.14134799 5.3119716 -2.39410195 4.13870035 -5 2 C-7.13309192 0.76487921 -7.13309192 0.76487921 -9 0 C-5.62182575 -0.84454356 -3.32534757 -1.10844919 0 0 Z " fill="#F3FEFF" transform="translate(406,170)"/>
<path d="M0 0 C1.2065625 0.33773438 2.413125 0.67546875 3.65625 1.0234375 C5.27081765 1.47401452 6.88540187 1.92453218 8.5 2.375 C9.68722656 2.70757812 9.68722656 2.70757812 10.8984375 3.046875 C15.91457115 4.44481389 20.94273476 5.75888215 26 7 C26 7.33 26 7.66 26 8 C24.20866022 8.05391993 22.41686101 8.09275571 20.625 8.125 C19.62726563 8.14820313 18.62953125 8.17140625 17.6015625 8.1953125 C15 8 15 8 13 6 C10.80295489 5.32348793 10.80295489 5.32348793 8.375 4.875 C7.55773437 4.70742188 6.74046875 4.53984375 5.8984375 4.3671875 C5.27195312 4.24601562 4.64546875 4.12484375 4 4 C4 3.34 4 2.68 4 2 C3.01 2.33 2.02 2.66 1 3 C0.67 2.01 0.34 1.02 0 0 Z " fill="#184F5F" transform="translate(307,300)"/>
<path d="M0 0 C0.33 0.99 0.66 1.98 1 3 C-0.1875 4.8125 -0.1875 4.8125 -2 7 C-2.598125 7.969375 -3.19625 8.93875 -3.8125 9.9375 C-6.2841036 13.39774504 -8.59253303 15.48143746 -12 18 C-12.66 18 -13.32 18 -14 18 C-12.35044362 13.91068059 -9.42596684 11.02035178 -6.4375 7.875 C-2.81366093 4.23596593 -2.81366093 4.23596593 0 0 Z " fill="#E6F9FA" transform="translate(478,292)"/>
<path d="M0 0 C0.99 0.33 1.98 0.66 3 1 C2.01 2.485 2.01 2.485 1 4 C2.32 4 3.64 4 5 4 C5.2475 4.78375 5.495 5.5675 5.75 6.375 C7.15389099 9.32317108 8.00675737 9.9024777 11 11 C10.34 12.32 9.68 13.64 9 15 C7.29490284 13.45672226 5.6113326 11.8896325 3.9375 10.3125 C2.99777344 9.44238281 2.05804688 8.57226562 1.08984375 7.67578125 C-1 5 -1 5 -0.80859375 2.16796875 C-0.54175781 1.45253906 -0.27492188 0.73710937 0 0 Z " fill="#1C4C5B" transform="translate(272,231)"/>
<path d="M0 0 C0.66 0 1.32 0 2 0 C-0.10989392 7.80660752 -4.03357404 15.49849035 -10 21 C-9.6875 17.625 -9.6875 17.625 -9 14 C-8.01 13.34 -7.02 12.68 -6 12 C-4.86137576 9.99978905 -3.80631435 7.95096774 -2.8125 5.875 C-2.28269531 4.77929688 -1.75289063 3.68359375 -1.20703125 2.5546875 C-0.80871094 1.71164062 -0.41039062 0.86859375 0 0 Z " fill="#ADD6DF" transform="translate(493,264)"/>
<path d="M0 0 C4.55485381 -0.50040841 6.40631778 -0.4623366 10.08984375 2.40625 C11.05761708 3.42010777 12.00672482 4.45207331 12.9375 5.5 C13.43056641 6.02464844 13.92363281 6.54929688 14.43164062 7.08984375 C15.63770499 8.37787365 16.82123259 9.68694263 18 11 C17.34 11.66 16.68 12.32 16 13 C15.278125 12.05125 14.55625 11.1025 13.8125 10.125 C11.50190102 7.32587438 9.55188548 6.01482442 6 5 C6 4.01 6 3.02 6 2 C3.69 2 1.38 2 -1 2 C-0.67 1.34 -0.34 0.68 0 0 Z " fill="#1E4450" transform="translate(279,211)"/>
<path d="M0 0 C5.61 0 11.22 0 17 0 C17 0.33 17 0.66 17 1 C16.00097656 1.06058594 15.00195312 1.12117188 13.97265625 1.18359375 C12.68230469 1.26738281 11.39195312 1.35117188 10.0625 1.4375 C8.77472656 1.51871094 7.48695313 1.59992188 6.16015625 1.68359375 C3.13976043 1.64919188 3.13976043 1.64919188 2 3 C1.84285346 4.63256758 1.74914586 6.27135338 1.68359375 7.91015625 C1.64169922 8.89951172 1.59980469 9.88886719 1.55664062 10.90820312 C1.51732422 11.94912109 1.47800781 12.99003906 1.4375 14.0625 C1.39431641 15.10728516 1.35113281 16.15207031 1.30664062 17.22851562 C1.20018775 19.81886884 1.0981724 22.40932186 1 25 C0.67 25 0.34 25 0 25 C0 16.75 0 8.5 0 0 Z " fill="#073D48" transform="translate(318,103)"/>
<path d="M0 0 C0.33 1.32 0.66 2.64 1 4 C1.66 4 2.32 4 3 4 C3 4.99 3 5.98 3 7 C5.97 7.495 5.97 7.495 9 8 C9 8.99 9 9.98 9 11 C8.21882813 10.58621094 8.21882813 10.58621094 7.421875 10.1640625 C4.42404298 8.72316905 1.35897091 7.55640895 -1.75 6.375 C-3.50570313 5.70597656 -3.50570313 5.70597656 -5.296875 5.0234375 C-6.18890625 4.68570313 -7.0809375 4.34796875 -8 4 C-8 3.67 -8 3.34 -8 3 C-5.36 2.67 -2.72 2.34 0 2 C0 1.34 0 0.68 0 0 Z " fill="#AFDAE3" transform="translate(371,72)"/>
<path d="M0 0 C0.66 0.33 1.32 0.66 2 1 C-0.1607276 4.2410914 -1.59716738 4.84783849 -5.12109375 6.23828125 C-6.89430255 6.95714968 -8.6075986 7.81896533 -10.3125 8.6875 C-13 10 -13 10 -15 10 C-15 10.66 -15 11.32 -15 12 C-16.32 11.67 -17.64 11.34 -19 11 C-16.39907118 9.3490067 -13.7937256 7.70511682 -11.1875 6.0625 C-10.44951172 5.59392578 -9.71152344 5.12535156 -8.95117188 4.64257812 C-8.23896484 4.19462891 -7.52675781 3.74667969 -6.79296875 3.28515625 C-6.1383667 2.87144775 -5.48376465 2.45773926 -4.80932617 2.03149414 C-3 1 -3 1 0 0 Z " fill="#AFDAE1" transform="translate(272,55)"/>
<path d="M0 0 C1.15224028 0.92961422 2.29659176 1.8690125 3.4375 2.8125 C4.07558594 3.33457031 4.71367187 3.85664063 5.37109375 4.39453125 C7 6 7 6 8 9 C10.01508358 9.73323796 10.01508358 9.73323796 12 10 C11.34 11.32 10.68 12.64 10 14 C6.37 10.37 2.74 6.74 -1 3 C-0.67 2.01 -0.34 1.02 0 0 Z " fill="#E5F3F7" transform="translate(289,211)"/>
<path d="M0 0 C-0.61746094 0.18175781 -1.23492187 0.36351562 -1.87109375 0.55078125 C-6.19358649 1.83371288 -10.48842456 3.15123541 -14.75 4.625 C-18.14304985 5.77610572 -21.43494433 6.54294158 -25 7 C-24.34 6.67 -23.68 6.34 -23 6 C-23 5.34 -23 4.68 -23 4 C-20.32326572 3.26192988 -17.64530324 2.52913601 -14.96484375 1.8046875 C-13.18311651 1.32110935 -11.40361554 0.82904301 -9.62890625 0.3203125 C-5.99050395 -0.68385902 -3.59923918 -1.10745821 0 0 Z " fill="#B4DAE1" transform="translate(316,41)"/>
<path d="M0 0 C2.64 0.33 5.28 0.66 8 1 C8 1.66 8 2.32 8 3 C8.556875 2.79375 9.11375 2.5875 9.6875 2.375 C12.659538 1.89304789 14.31979941 2.73434972 17 4 C17 4.66 17 5.32 17 6 C17.99 6 18.98 6 20 6 C20 6.66 20 7.32 20 8 C13.14381674 6.07443364 6.56747868 3.7527517 0 1 C0 0.67 0 0.34 0 0 Z " fill="#CFE7EB" transform="translate(296,295)"/>
<path d="M0 0 C0.33 0 0.66 0 1 0 C1.64625456 3.06241127 2.29192853 6.12494467 2.9375 9.1875 C3.11990234 10.05181641 3.30230469 10.91613281 3.49023438 11.80664062 C4.34595855 15.86744081 5.19907784 19.92794314 6 24 C3.44624227 22.42725896 2.18518491 21.52498174 1.171875 18.65234375 C0.19717839 12.37999056 -0.24783143 6.34723817 0 0 Z " fill="#D9EDF2" transform="translate(185,218)"/>
<path d="M0 0 C1.5 1.125 1.5 1.125 3 3 C3.1875 6.1875 3.1875 6.1875 3 9 C2.34 8.34 1.68 7.68 1 7 C1.33 6.34 1.66 5.68 2 5 C1.34 5 0.68 5 0 5 C-0.226875 5.639375 -0.45375 6.27875 -0.6875 6.9375 C-2 9 -2 9 -4.625 9.75 C-5.40875 9.8325 -6.1925 9.915 -7 10 C-5.33248852 6.05860922 -2.77289351 3.2107188 0 0 Z " fill="#174C5A" transform="translate(395,221)"/>
<path d="M0 0 C0.33 0 0.66 0 1 0 C1.21686645 4.37758788 1.41375794 8.7554762 1.59204102 13.13476562 C1.65553821 14.62491962 1.72452491 16.11485011 1.79907227 17.60449219 C1.90518271 19.74379266 1.99163253 21.88311605 2.07421875 24.0234375 C2.13182373 25.31169434 2.18942871 26.59995117 2.2487793 27.92724609 C2.16668213 28.94125488 2.08458496 29.95526367 2 31 C1.01 31.66 0.02 32.32 -1 33 C-0.67 22.11 -0.34 11.22 0 0 Z " fill="#91DDEC" transform="translate(466,211)"/>
<path d="M0 0 C0.33 0 0.66 0 1 0 C1.08636719 0.58007812 1.17273438 1.16015625 1.26171875 1.7578125 C2.3104403 7.58831944 3.86535216 10.75654564 8 15 C5.03 14.505 5.03 14.505 2 14 C2 13.34 2 12.68 2 12 C1.01 12 0.02 12 -1 12 C-0.67 8.04 -0.34 4.08 0 0 Z " fill="#1C4E5D" transform="translate(271,213)"/>
<path d="M0 0 C0.99 0 1.98 0 3 0 C3 0.66 3 1.32 3 2 C3.66 2 4.32 2 5 2 C5.33 1.34 5.66 0.68 6 0 C6.33 2.31 6.66 4.62 7 7 C7.99 7 8.98 7 10 7 C10.33 8.65 10.66 10.3 11 12 C2.63371151 4.94975689 2.63371151 4.94975689 0 2 C0 1.34 0 0.68 0 0 Z " fill="#DAEDF0" transform="translate(247,258)"/>
<path d="M0 0 C0.625 2.875 0.625 2.875 1 6 C0.34 6.66 -0.32 7.32 -1 8 C-3.125 7.625 -3.125 7.625 -5 7 C-5.1875 4.625 -5.1875 4.625 -5 2 C-2 0 -2 0 0 0 Z " fill="#024256" transform="translate(395,229)"/>
<path d="M0 0 C1.36363845 2.72727691 0.83805813 4.4307582 0.44140625 7.4453125 C0.30283203 8.52167969 0.16425781 9.59804687 0.02148438 10.70703125 C-0.12998047 11.83496094 -0.28144531 12.96289062 -0.4375 14.125 C-0.58509766 15.26066406 -0.73269531 16.39632812 -0.88476562 17.56640625 C-1.25102973 20.37836939 -1.62300697 23.18945849 -2 26 C-2.33 26 -2.66 26 -3 26 C-2.98839844 24.79601562 -2.97679687 23.59203125 -2.96484375 22.3515625 C-2.95546566 20.77604321 -2.94636548 19.20052225 -2.9375 17.625 C-2.92912109 16.8309375 -2.92074219 16.036875 -2.91210938 15.21875 C-2.76959849 10.97607778 -2.76959849 10.97607778 -4 7 C-3.22265625 5.2734375 -3.22265625 5.2734375 -2.0625 3.375 C-1.381875 2.26125 -0.70125 1.1475 0 0 Z " fill="#507781" transform="translate(206,109)"/>
<path d="M0 0 C0.33 0.99 0.66 1.98 1 3 C-2.29378145 9.19230913 -6.88238394 11.99393004 -13 15 C-8.70214922 9.96836982 -4.36574458 4.97281557 0 0 Z " fill="#DBECEF" transform="translate(394,238)"/>
<path d="M0 0 C4.52615993 3.67832017 8.39424999 7.41086363 12 12 C8.47601214 12 7.98495633 11.44884893 5.4375 9.1875 C4.83808594 8.66542969 4.23867188 8.14335937 3.62109375 7.60546875 C2 6 2 6 0 3 C0 2.01 0 1.02 0 0 Z " fill="#E3F3F5" transform="translate(272,237)"/>
<path d="M0 0 C2 1 2 1 3.10546875 3.66015625 C5.20564372 10.26395551 6.6011729 15.1950152 5 22 C2.77345162 18.66017743 2.47798402 16.62531218 1.9375 12.6875 C1.78152344 11.57761719 1.62554687 10.46773437 1.46484375 9.32421875 C1.31144531 8.22722656 1.15804688 7.13023437 1 6 C0.67297276 3.9989592 0.34166574 1.99859341 0 0 Z " fill="#E7FAFB" transform="translate(505,154)"/>
<path d="M0 0 C0.66 0.66 1.32 1.32 2 2 C3.31747324 2.69748583 4.64914193 3.36959957 6 4 C5.24074219 4.20496094 4.48148437 4.40992187 3.69921875 4.62109375 C2.70535156 4.89050781 1.71148437 5.15992187 0.6875 5.4375 C-0.29863281 5.70433594 -1.28476563 5.97117187 -2.30078125 6.24609375 C-4.21517526 6.78079425 -6.11433615 7.37144538 -8 8 C-6.88333826 4.65001479 -6.25305075 4.20659778 -3.4375 2.3125 C-2.79683594 1.87550781 -2.15617188 1.43851562 -1.49609375 0.98828125 C-1.00238281 0.66214844 -0.50867188 0.33601563 0 0 Z " fill="#B8DEE8" transform="translate(252,67)"/>
<path d="M0 0 C-1.66289062 0.81404297 -1.66289062 0.81404297 -3.359375 1.64453125 C-4.82302269 2.36697274 -6.2865585 3.08964092 -7.75 3.8125 C-8.47960937 4.16892578 -9.20921875 4.52535156 -9.9609375 4.89257812 C-13.55910218 6.67530517 -16.89632709 8.41088339 -20 11 C-20.66 10.67 -21.32 10.34 -22 10 C-19.54399874 7.23905899 -16.86948717 5.67530066 -13.625 3.9375 C-12.68914062 3.43089844 -11.75328125 2.92429688 -10.7890625 2.40234375 C-3.61474037 -1.20491346 -3.61474037 -1.20491346 0 0 Z " fill="#E4FAFC" transform="translate(280,52)"/>
<path d="M0 0 C1.32 0.33 2.64 0.66 4 1 C4 1.66 4 2.32 4 3 C4.99 3.33 5.98 3.66 7 4 C8.40113616 5.95309888 9.73339467 7.95708818 11 10 C11.99 11.485 11.99 11.485 13 13 C12.67 13.99 12.34 14.98 12 16 C8 10.66666667 4 5.33333333 0 0 Z " fill="#1D4956" transform="translate(284,226)"/>
<path d="M0 0 C1.5625 1.625 1.5625 1.625 3 4 C2.6875 7.25 2.6875 7.25 2 10 C1.01 9.34 0.02 8.68 -1 8 C-1.33 9.32 -1.66 10.64 -2 12 C-2.33 12 -2.66 12 -3 12 C-3.36923077 4.61538462 -3.36923077 4.61538462 -1.5 1.5 C-1.005 1.005 -0.51 0.51 0 0 Z " fill="#DCEAEE" transform="translate(275,208)"/>
<path d="M0 0 C1.23268696 3.69806088 0.59433466 4.84773679 -0.75 8.4375 C-1.09546875 9.38496094 -1.4409375 10.33242188 -1.796875 11.30859375 C-3 14 -3 14 -6 18 C-5.34 14.37 -4.68 10.74 -4 7 C-3.34 7 -2.68 7 -2 7 C-1.855625 6.030625 -1.71125 5.06125 -1.5625 4.0625 C-1 1 -1 1 0 0 Z " fill="#AED9DF" transform="translate(501,246)"/>
<path d="M0 0 C0.33 0.66 0.66 1.32 1 2 C-1.51428571 8.51428571 -1.51428571 8.51428571 -3 10 C-5.33297433 10.04092937 -7.66705225 10.04241723 -10 10 C-9.67 8.68 -9.34 7.36 -9 6 C-9 6.99 -9 7.98 -9 9 C-7.68 9 -6.36 9 -5 9 C-4.5978125 7.6078125 -4.5978125 7.6078125 -4.1875 6.1875 C-3.08851629 3.23759634 -2.37581439 1.94384814 0 0 Z " fill="#2F5463" transform="translate(381,237)"/>
<path d="M0 0 C0.99 0.99 1.98 1.98 3 3 C0.03 6.3 -2.94 9.6 -6 13 C-6.33 12.01 -6.66 11.02 -7 10 C-5.56640625 7.51953125 -5.56640625 7.51953125 -3.5625 4.8125 C-2.90378906 3.91144531 -2.24507813 3.01039063 -1.56640625 2.08203125 C-1.04949219 1.39496094 -0.53257812 0.70789063 0 0 Z " fill="#1D4957" transform="translate(381,225)"/>
<path d="M0 0 C2.49505962 2.49505962 2.35948376 3.67328888 2.625 7.125 C2.69976562 8.03507813 2.77453125 8.94515625 2.8515625 9.8828125 C2.90054687 10.58148438 2.94953125 11.28015625 3 12 C1.68 12.33 0.36 12.66 -1 13 C-2.12758089 9.61725734 -1.81750262 8.23221777 -1.0625 4.8125 C-0.86785156 3.91144531 -0.67320312 3.01039063 -0.47265625 2.08203125 C-0.23869141 1.05142578 -0.23869141 1.05142578 0 0 Z " fill="#1A9498" transform="translate(462,195)"/>
<path d="M0 0 C5.31027254 1.46032495 9.46330032 3.98320986 14 7 C9.74938644 8.41687119 7.28148375 7.19320039 3 6 C3 5.01 3 4.02 3 3 C2.01 2.67 1.02 2.34 0 2 C0 1.34 0 0.68 0 0 Z " fill="#ABD7DE" transform="translate(424,56)"/>
<path d="M0 0 C5.42857143 -0.36190476 5.42857143 -0.36190476 7.875 1.1875 C9.34781139 3.56036279 9.22223194 5.25913944 9 8 C8.67 7.01 8.34 6.02 8 5 C6.02 5 4.04 5 2 5 C1.34 3.35 0.68 1.7 0 0 Z " fill="#164350" transform="translate(383,211)"/>
<path d="M0 0 C1.9375 0.8125 1.9375 0.8125 4 2 C4.33 2.99 4.66 3.98 5 5 C4.34 5.66 3.68 6.32 3 7 C1.25 6.75 1.25 6.75 -1 6 C-2.0725 5.649375 -3.145 5.29875 -4.25 4.9375 C-5.1575 4.628125 -6.065 4.31875 -7 4 C-7 3.67 -7 3.34 -7 3 C-4.69 3 -2.38 3 0 3 C0 2.01 0 1.02 0 0 Z " fill="#D8E7EA" transform="translate(391,207)"/>
<path d="M0 0 C0.66 0 1.32 0 2 0 C0.25192871 5.46737191 -1.65794081 10.75824848 -4 16 C-4.33 16 -4.66 16 -5 16 C-4.55643705 9.79011871 -3.08467498 5.39459439 0 0 Z " fill="#138E94" transform="translate(454,278)"/>
<path d="M0 0 C0 0.99 0 1.98 0 3 C-3.63 4.32 -7.26 5.64 -11 7 C-11.66 6.34 -12.32 5.68 -13 5 C-11.21046815 4.16209211 -9.41830305 3.32980604 -7.625 2.5 C-6.62726563 2.0359375 -5.62953125 1.571875 -4.6015625 1.09375 C-2 0 -2 0 0 0 Z " fill="#AFDBE0" transform="translate(288,48)"/>
<path d="M0 0 C-2.95191434 1.96794289 -4.65492023 2.52003592 -8.0625 3.1875 C-8.94035156 3.36667969 -9.81820313 3.54585938 -10.72265625 3.73046875 C-13 4 -13 4 -15 3 C-15 2.34 -15 1.68 -15 1 C-9.92928099 0.28832014 -5.11791642 -0.10662326 0 0 Z " fill="#097F8B" transform="translate(335,323)"/>
<path d="M0 0 C0.66 0.66 1.32 1.32 2 2 C1.8984375 4.53125 1.8984375 4.53125 1.375 7.5 C1.21773438 8.4796875 1.06046875 9.459375 0.8984375 10.46875 C0 13 0 13 -2.0859375 14.34375 C-3.03339844 14.66859375 -3.03339844 14.66859375 -4 15 C-3.69255859 14.00419922 -3.69255859 14.00419922 -3.37890625 12.98828125 C-3.10949219 12.10527344 -2.84007812 11.22226562 -2.5625 10.3125 C-2.29566406 9.44238281 -2.02882813 8.57226562 -1.75390625 7.67578125 C-1.03655471 5.12974079 -0.482459 2.5996577 0 0 Z " fill="#88D7E4" transform="translate(459,267)"/>
<path d="M0 0 C1.32 0.33 2.64 0.66 4 1 C4 4 4 4 1.6875 6.5625 C-1 9 -1 9 -4 11 C-4 10.01 -4 9.02 -4 8 C-3.34 8 -2.68 8 -2 8 C-2 7.34 -2 6.68 -2 6 C-1.34 6 -0.68 6 0 6 C-0.185625 5.38125 -0.37125 4.7625 -0.5625 4.125 C-1 2 -1 2 0 0 Z " fill="#15959A" transform="translate(420,328)"/>
<path d="M0 0 C1.98 1.65 3.96 3.3 6 5 C5.01 5.495 5.01 5.495 4 6 C3.34 5.67 2.68 5.34 2 5 C1.67 5.99 1.34 6.98 1 8 C-0.32 6.02 -1.64 4.04 -3 2 C-2.01 2 -1.02 2 0 2 C0 1.34 0 0.68 0 0 Z " fill="#DBEBEE" transform="translate(280,223)"/>
<path d="M0 0 C1.32 0.33 2.64 0.66 4 1 C4 1.66 4 2.32 4 3 C5.98 3.66 7.96 4.32 10 5 C10 5.99 10 6.98 10 8 C6.51329166 6.8905928 3.22515763 5.73662334 0 4 C0 2.68 0 1.36 0 0 Z " fill="#269394" transform="translate(274,338)"/>
<path d="M0 0 C3.3 0.33 6.6 0.66 10 1 C10 2.32 10 3.64 10 5 C8.68 4.67 7.36 4.34 6 4 C6 4.66 6 5.32 6 6 C2.26360784 4.75453595 1.81243487 3.36595047 0 0 Z " fill="#187483" transform="translate(225,303)"/>
<path d="M0 0 C7.48291572 6.15034169 7.48291572 6.15034169 10 10 C6.9168649 8.80100302 3.93720508 7.52299523 1 6 C1 5.01 1 4.02 1 3 C0.34 2.34 -0.32 1.68 -1 1 C-0.67 0.67 -0.34 0.34 0 0 Z " fill="#1D4958" transform="translate(306,232)"/>
<path d="M0 0 C2.56616632 3.84924948 2.55097676 6.4349304 3 11 C3.66 11 4.32 11 5 11 C5 12.65 5 14.3 5 16 C4.34 16 3.68 16 3 16 C2.30178583 13.89936424 1.61675528 11.79434263 0.9375 9.6875 C0.55464844 8.51574219 0.17179687 7.34398437 -0.22265625 6.13671875 C-1 3 -1 3 0 0 Z " fill="#B6DDE2" transform="translate(456,165)"/>
<path d="M0 0 C2.31 0 4.62 0 7 0 C6.25 4.75 6.25 4.75 4 7 C2.02 3.535 2.02 3.535 0 0 Z " fill="#155263" transform="translate(214,289)"/>
<path d="M0 0 C0.33 0 0.66 0 1 0 C0.88529863 1.75070517 0.75780972 3.50057536 0.625 5.25 C0.55539062 6.22453125 0.48578125 7.1990625 0.4140625 8.203125 C0.01534751 10.89633189 -0.63507063 12.66963279 -2 15 C-2.33 13.02 -2.66 11.04 -3 9 C-2.34 9 -1.68 9 -1 9 C-1.391875 8.2575 -1.78375 7.515 -2.1875 6.75 C-2.455625 5.8425 -2.72375 4.935 -3 4 C-1.6875 1.6875 -1.6875 1.6875 0 0 Z " fill="#18929C" transform="translate(463,245)"/>
<path d="M0 0 C0.66 0.33 1.32 0.66 2 1 C2.33 1.99 2.66 2.98 3 4 C5.01508358 4.73323796 5.01508358 4.73323796 7 5 C7 5.66 7 6.32 7 7 C5.02 7.33 3.04 7.66 1 8 C0.34 5.69 -0.32 3.38 -1 1 C-0.67 0.67 -0.34 0.34 0 0 Z " fill="#295462" transform="translate(290,241)"/>
<path d="M0 0 C0.33 0.66 0.66 1.32 1 2 C1.99 1.67 2.98 1.34 4 1 C4 2.98 4 4.96 4 7 C3.01 6.34 2.02 5.68 1 5 C0.01 5.495 0.01 5.495 -1 6 C-1.99 5.67 -2.98 5.34 -4 5 C-4 4.34 -4 3.68 -4 3 C-2 1.375 -2 1.375 0 0 Z " fill="#023B4C" transform="translate(283,236)"/>
<path d="M0 0 C0.66 0 1.32 0 2 0 C2 0.66 2 1.32 2 2 C2.99 1.67 3.98 1.34 5 1 C7.6875 2.4375 7.6875 2.4375 10 4 C9.34 4.66 8.68 5.32 8 6 C6.68 6 5.36 6 4 6 C4 5.34 4 4.68 4 4 C3.01 3.67 2.02 3.34 1 3 C0.67 2.01 0.34 1.02 0 0 Z " fill="#029094" transform="translate(236,311)"/>
<path d="M0 0 C0.99 0.33 1.98 0.66 3 1 C3 2.32 3 3.64 3 5 C2.34 5 1.68 5 1 5 C1 5.66 1 6.32 1 7 C0.34 7 -0.32 7 -1 7 C-1 7.66 -1 8.32 -1 9 C-1.66 9 -2.32 9 -3 9 C-2.01 6.03 -1.02 3.06 0 0 Z " fill="#185562" transform="translate(201,117)"/>
<path d="M0 0 C-0.66 0 -1.32 0 -2 0 C-2.33 0.99 -2.66 1.98 -3 3 C-5.97 2.67 -8.94 2.34 -12 2 C-4.86956522 -1.56521739 -4.86956522 -1.56521739 0 0 Z " fill="#D9F5F6" transform="translate(392,353)"/>
<path d="M0 0 C0.33 0.66 0.66 1.32 1 2 C-2 5 -5 8 -8 11 C-7.49268371 6.60325886 -4.88085945 4.16191891 -2 1 C-1.34 0.67 -0.68 0.34 0 0 Z " fill="#AFD9E1" transform="translate(482,286)"/>
<path d="M0 0 C0.66 0 1.32 0 2 0 C2.66 3.96 3.32 7.92 4 12 C3.34 12 2.68 12 2 12 C0.86235649 7.73383684 0 4.43513689 0 0 Z " fill="#2E5D6A" transform="translate(203,170)"/>
<path d="M0 0 C0.66 0 1.32 0 2 0 C1.74476126 1.62752231 1.47025506 3.25203196 1.1875 4.875 C1.03667969 5.77992188 0.88585937 6.68484375 0.73046875 7.6171875 C0 10 0 10 -3 12 C-2.49202991 7.6822542 -1.80317221 3.96697886 0 0 Z " fill="#325F6F" transform="translate(192,140)"/>
<path d="M0 0 C2.31 0 4.62 0 7 0 C3.30827405 3.53790403 -0.09390595 3.59115883 -5 4 C-5 3.34 -5 2.68 -5 2 C-3.35 2 -1.7 2 0 2 C0 1.34 0 0.68 0 0 Z " fill="#269192" transform="translate(389,349)"/>
<path d="M0 0 C-0.5 1.8125 -0.5 1.8125 -2 4 C-4.5863924 5.26152609 -7.25200829 6.15643045 -10 7 C-10 6.01 -10 5.02 -10 4 C-8.02 3.67 -6.04 3.34 -4 3 C-4 2.34 -4 1.68 -4 1 C-2 0 -2 0 0 0 Z " fill="#1F8E92" transform="translate(412,341)"/>
<path d="M0 0 C0.66 0 1.32 0 2 0 C0.74194623 4.50802601 -0.90407165 7.4912812 -4 11 C-4 8.69 -4 6.38 -4 4 C-2.68 3.67 -1.36 3.34 0 3 C0 2.01 0 1.02 0 0 Z " fill="#CFF5F6" transform="translate(445,240)"/>
<path d="M0 0 C0.33 0 0.66 0 1 0 C1.33 3.96 1.66 7.92 2 12 C1.34 12 0.68 12 0 12 C0 13.98 0 15.96 0 18 C-0.33 18 -0.66 18 -1 18 C-0.505 9.09 -0.505 9.09 0 0 Z " fill="#376A79" transform="translate(185,166)"/>
<path d="M0 0 C5.19822672 1.36144033 8.09543873 3.46730171 12 7 C11.67 7.66 11.34 8.32 11 9 C9.16384919 7.69144447 7.33114211 6.37805538 5.5 5.0625 C4.4790625 4.33160156 3.458125 3.60070312 2.40625 2.84765625 C1.6121875 2.23792969 0.818125 1.62820312 0 1 C0 0.67 0 0.34 0 0 Z " fill="#ABD7DF" transform="translate(399,94)"/>
<path d="M0 0 C0.99 0.33 1.98 0.66 3 1 C1.71451591 2.33929505 0.42141845 3.67128643 -0.875 5 C-1.59429687 5.7425 -2.31359375 6.485 -3.0546875 7.25 C-5 9 -5 9 -7 9 C-5.71480435 6.13302508 -4.42870746 4.02392288 -2 2 C-1.34 2 -0.68 2 0 2 C0 1.34 0 0.68 0 0 Z " fill="#DEFAFB" transform="translate(414,280)"/>
<path d="M0 0 C2 2 2 2 2 6 C0.35 5.67 -1.3 5.34 -3 5 C-3.33 3.68 -3.66 2.36 -4 1 C-2.68 1.33 -1.36 1.66 0 2 C0 1.34 0 0.68 0 0 Z " fill="#D9EDF0" transform="translate(295,240)"/>
<path d="M0 0 C0 1.98 0 3.96 0 6 C-1.11375 5.071875 -1.11375 5.071875 -2.25 4.125 C-4.48801188 2.39562719 -6.43739987 1.13893339 -9 0 C-5.62182575 -0.84454356 -3.32534757 -1.10844919 0 0 Z " fill="#D9E9EE" transform="translate(406,170)"/>
<path d="M0 0 C2.5 1.3125 2.5 1.3125 5 3 C5 3.99 5 4.98 5 6 C4.01 6.33 3.02 6.66 2 7 C0.5393715 4.35261084 0 3.10551666 0 0 Z " fill="#E4F9F9" transform="translate(242,321)"/>
<path d="M0 0 C0.66 0.33 1.32 0.66 2 1 C-0.31 3.64 -2.62 6.28 -5 9 C-5.99 8.67 -6.98 8.34 -8 8 C-7.67 7.34 -7.34 6.68 -7 6 C-6.01 6 -5.02 6 -4 6 C-4 5.34 -4 4.68 -4 4 C-2.70766393 2.62689293 -1.37562854 1.28965176 0 0 Z " fill="#ADD6DF" transform="translate(460,309)"/>
<path d="M0 0 C0.33 0.99 0.66 1.98 1 3 C0.01 3.33 -0.98 3.66 -2 4 C-1.67 4.99 -1.34 5.98 -1 7 C-3.97 6.505 -3.97 6.505 -7 6 C-4.83312509 3.72478134 -2.54379491 1.84205838 0 0 Z " fill="#1F9194" transform="translate(401,294)"/>
<path d="M0 0 C0.33 0 0.66 0 1 0 C1 1.98 1 3.96 1 6 C0.01 6.33 -0.98 6.66 -2 7 C-2.33 8.65 -2.66 10.3 -3 12 C-3.66 12 -4.32 12 -5 12 C-3.68938409 7.76570244 -2.05643741 3.92592596 0 0 Z " fill="#7CD5DE" transform="translate(450,291)"/>
<path d="M0 0 C0.99 0.33 1.98 0.66 3 1 C0.14723863 3.93200474 -2.65079784 6.64315404 -6 9 C-5.52797514 4.75177626 -3.03344482 2.80010291 0 0 Z " fill="#CFE2E6" transform="translate(361,230)"/>
<path d="M0 0 C0.99 0.33 1.98 0.66 3 1 C0.42215154 3.64752004 -1.91648098 5.94432065 -5 8 C-5 4 -5 4 -2.6875 1.6875 C-1.800625 1.130625 -0.91375 0.57375 0 0 Z " fill="#D8E8EA" transform="translate(369,222)"/>
<path d="M0 0 C2.64465038 3.1254959 3.84414715 6.08788267 5 10 C4.01 9.67 3.02 9.34 2 9 C2 8.34 2 7.68 2 7 C1.34 7 0.68 7 0 7 C0 4.69 0 2.38 0 0 Z " fill="#2B5D71" transform="translate(219,218)"/>
<path d="M0 0 C1.65 0 3.3 0 5 0 C5.33 0.99 5.66 1.98 6 3 C7.32 3 8.64 3 10 3 C9.67 3.99 9.34 4.98 9 6 C6.03 4.35 3.06 2.7 0 1 C0 0.67 0 0.34 0 0 Z " fill="#2D9293" transform="translate(258,332)"/>
<path d="M0 0 C-1 1.5625 -1 1.5625 -3 3 C-5.76614782 2.96726452 -8.26030547 2.49404328 -11 2 C-7.36576791 -0.32590854 -4.22911669 -0.16265833 0 0 Z " fill="#09818F" transform="translate(347,321)"/>
<path d="M0 0 C0.66 0.66 1.32 1.32 2 2 C1.625 4.125 1.625 4.125 1 6 C-0.65 6.33 -2.3 6.66 -4 7 C-2.68 4.69 -1.36 2.38 0 0 Z " fill="#86D6E0" transform="translate(444,303)"/>
<path d="M0 0 C1.32 0 2.64 0 4 0 C3.34 3.96 2.68 7.92 2 12 C1.67 12 1.34 12 1 12 C0.67 8.04 0.34 4.08 0 0 Z " fill="#2A5564" transform="translate(371,258)"/>
<path d="M0 0 C0.33 0.99 0.66 1.98 1 3 C1.99 2.67 2.98 2.34 4 2 C4 2.66 4 3.32 4 4 C2.02 4.99 0.04 5.98 -2 7 C-2.66 6.34 -3.32 5.68 -4 5 C-2.68 3.35 -1.36 1.7 0 0 Z " fill="#1A4A5C" transform="translate(369,224)"/>
<path d="M0 0 C0.33 0.66 0.66 1.32 1 2 C1.66 2 2.32 2 3 2 C2.67 3.32 2.34 4.64 2 6 C0.0625 5.1875 0.0625 5.1875 -2 4 C-2.33 3.01 -2.66 2.02 -3 1 C-2.01 0.67 -1.02 0.34 0 0 Z " fill="#B1DCE5" transform="translate(416,104)"/>
<path d="M0 0 C3.66881155 0.70554068 6.70450534 2.27735506 10 4 C9.01 5.485 9.01 5.485 8 7 C7.34 6.67 6.68 6.34 6 6 C6 5.34 6 4.68 6 4 C4.02 3.34 2.04 2.68 0 2 C0 1.34 0 0.68 0 0 Z " fill="#ACDBE1" transform="translate(386,85)"/>
<path d="M0 0 C3.3 0.33 6.6 0.66 10 1 C10.33 1.99 10.66 2.98 11 4 C7.1936543 3.32829194 3.64793184 2.27253436 0 1 C0 0.67 0 0.34 0 0 Z " fill="#B4DAE4" transform="translate(349,70)"/>
<path d="M0 0 C0.66 0.33 1.32 0.66 2 1 C-0.64 2.65 -3.28 4.3 -6 6 C-6.99 5.34 -7.98 4.68 -9 4 C-7.54618103 3.30300448 -6.08677047 2.61766134 -4.625 1.9375 C-3.40683594 1.36322266 -3.40683594 1.36322266 -2.1640625 0.77734375 C-1.44992187 0.52082031 -0.73578125 0.26429688 0 0 Z " fill="#07808C" transform="translate(369,312)"/>
<path d="M0 0 C2.40072955 2.88087546 4.47291037 5.56404834 6 9 C3.53199953 7.84826645 1.95216435 6.95216435 0 5 C-0.125 2.375 -0.125 2.375 0 0 Z " fill="#295A69" transform="translate(227,233)"/>
<path d="M0 0 C1.98 0 3.96 0 6 0 C6.66 1.65 7.32 3.3 8 5 C2.25 3.375 2.25 3.375 0 0 Z " fill="#088D8D" transform="translate(244,321)"/>
<path d="M0 0 C0 1.65 0 3.3 0 5 C-0.99 5 -1.98 5 -3 5 C-3.66 3.68 -4.32 2.36 -5 1 C-1.125 0 -1.125 0 0 0 Z " fill="#1B9097" transform="translate(245,316)"/>
<path d="M0 0 C4.75 0.75 4.75 0.75 7 3 C6.67 3.99 6.34 4.98 6 6 C3.97945196 4.35830472 1.97956942 2.69088222 0 1 C0 0.67 0 0.34 0 0 Z " fill="#D0E6EA" transform="translate(262,273)"/>
<path d="M0 0 C0.66 0 1.32 0 2 0 C1.34 3.3 0.68 6.6 0 10 C-0.66 9.34 -1.32 8.68 -2 8 C-1.42307692 1.42307692 -1.42307692 1.42307692 0 0 Z " fill="#1B9298" transform="translate(459,262)"/>
<path d="M0 0 C0.9681648 3.8726592 1.07622858 7.03611362 1 11 C-0.32 10.34 -1.64 9.68 -3 9 C-2.01 6.03 -1.02 3.06 0 0 Z " fill="#26999A" transform="translate(453,226)"/>
<path d="M0 0 C3.96 1.98 3.96 1.98 8 4 C8 4.33 8 4.66 8 5 C5.69 4.67 3.38 4.34 1 4 C0.67 2.68 0.34 1.36 0 0 Z " fill="#C9F3F5" transform="translate(266,337)"/>
<path d="M0 0 C3.875 1.75 3.875 1.75 5 4 C4.34 4 3.68 4 3 4 C2.67 4.66 2.34 5.32 2 6 C1.01 4.68 0.02 3.36 -1 2 C-0.67 1.34 -0.34 0.68 0 0 Z " fill="#209794" transform="translate(231,307)"/>
<path d="M0 0 C0.66 0.33 1.32 0.66 2 1 C1.67 3.31 1.34 5.62 1 8 C-0.89213369 5.61426621 -2.02391783 3.92824652 -3 1 C-2.01 0.67 -1.02 0.34 0 0 Z " fill="#164E61" transform="translate(203,264)"/>
<path d="M0 0 C0.66 0 1.32 0 2 0 C2.99 1.98 3.98 3.96 5 6 C4.01 6 3.02 6 2 6 C0.3125 4 0.3125 4 -1 2 C-0.67 1.34 -0.34 0.68 0 0 Z " fill="#234E5F" transform="translate(290,252)"/>
<path d="M0 0 C0.33 0.99 0.66 1.98 1 3 C-0.98 4.32 -2.96 5.64 -5 7 C-5.66 6.67 -6.32 6.34 -7 6 C-4.69 4.02 -2.38 2.04 0 0 Z " fill="#2F5463" transform="translate(358,236)"/>
<path d="M0 0 C1.99097846 2.98646769 2.94124926 5.59687262 4 9 C3.01 9.33 2.02 9.66 1 10 C0.67 6.7 0.34 3.4 0 0 Z " fill="#245A66" transform="translate(215,209)"/>
<path d="M0 0 C-0.33 0.99 -0.66 1.98 -1 3 C-4.0625 4.1875 -4.0625 4.1875 -7 5 C-5.64703851 0.94111554 -4.27479763 0 0 0 Z " fill="#B6DADD" transform="translate(251,70)"/>
<path d="M0 0 C2.64 0.66 5.28 1.32 8 2 C7.67 3.32 7.34 4.64 7 6 C5.83054208 5.19152271 4.66449539 4.37810888 3.5 3.5625 C2.8503125 3.11003906 2.200625 2.65757812 1.53125 2.19140625 C1.0259375 1.79824219 0.520625 1.40507812 0 1 C0 0.67 0 0.34 0 0 Z " fill="#2F9A9E" transform="translate(247,324)"/>
<path d="M0 0 C0.66 0.33 1.32 0.66 2 1 C2 1.99 2 2.98 2 4 C-0.375 4.625 -0.375 4.625 -3 5 C-3.66 4.34 -4.32 3.68 -5 3 C-2.625 1.4375 -2.625 1.4375 0 0 Z " fill="#22939B" transform="translate(387,303)"/>
<path d="M0 0 C1.65 1.65 3.3 3.3 5 5 C4.34 5.66 3.68 6.32 3 7 C1.5 5.75 1.5 5.75 0 4 C0 2.68 0 1.36 0 0 Z " fill="#305E6F" transform="translate(243,255)"/>
<path d="M0 0 C0.99 0 1.98 0 3 0 C3 0.66 3 1.32 3 2 C3.99 2 4.98 2 6 2 C6.33 2.99 6.66 3.98 7 5 C6.01 5 5.02 5 4 5 C1.8125 2.5 1.8125 2.5 0 0 Z " fill="#DFF3F6" transform="translate(240,251)"/>
<path d="M0 0 C2.5 2.3125 2.5 2.3125 5 5 C5 5.99 5 6.98 5 8 C2.5 6.25 2.5 6.25 0 4 C0 2.68 0 1.36 0 0 Z " fill="#244B57" transform="translate(316,242)"/>
<path d="M0 0 C0 3 0 3 -2 5.1875 C-2.66 5.785625 -3.32 6.38375 -4 7 C-4 5.68 -4 4.36 -4 3 C-2 1.25 -2 1.25 0 0 Z " fill="#0C3746" transform="translate(354,241)"/>
<path d="M0 0 C0.33 0 0.66 0 1 0 C1.26218749 3.14624993 1.24754367 4.61837017 -0.5 7.3125 C-1.2425 8.1478125 -1.2425 8.1478125 -2 9 C-2.66 8.67 -3.32 8.34 -4 8 C-2.68 5.36 -1.36 2.72 0 0 Z " fill="#279296" transform="translate(449,236)"/>
<path d="M0 0 C1.17539996 0.92652701 2.34010577 1.86663387 3.5 2.8125 C4.1496875 3.33457031 4.799375 3.85664063 5.46875 4.39453125 C7 6 7 6 7 9 C3.99234114 6.15063897 1.72154788 3.76488042 0 0 Z " fill="#274E5D" transform="translate(289,215)"/>
<path d="M0 0 C1.20628008 2.33214148 2.1654738 4.49642139 3 7 C3.66 7.33 4.32 7.66 5 8 C4.01 8.33 3.02 8.66 2 9 C0 7 0 7 -0.125 3.375 C-0.08375 2.26125 -0.0425 1.1475 0 0 Z " fill="#244B56" transform="translate(277,213)"/>
<path d="M0 0 C2 2 2 2 2.3125 4.4375 C2 7 2 7 -1 10 C-0.67 6.7 -0.34 3.4 0 0 Z " fill="#288F93" transform="translate(462,195)"/>
<path d="M0 0 C2.475 0.99 2.475 0.99 5 2 C4.34 3.98 3.68 5.96 3 8 C1.0549 5.08235 0.54723683 3.37462715 0 0 Z " fill="#E8F4F6" transform="translate(209,190)"/>
<path d="M0 0 C4.40114397 0.50298788 6.71195019 2.08772731 10 5 C7.03 4.505 7.03 4.505 4 4 C3.67 3.01 3.34 2.02 3 1 C2.01 0.67 1.02 0.34 0 0 Z " fill="#BCDFE7" transform="translate(410,49)"/>
</svg>
